#!OML:ASF F:\VICON\USERDATA\INSTALL\rory3\rory3.ASF
:FULLY-SPECIFIED
:DEGREES
2085
root -0.0866275 15.3105 -2.78762 -0.589949 0.173797 -3.43518
lowerback 30.2034 0.837279 -6.6427
upperback 11.9368 -1.12155 -5.80458
thorax -3.04325 -0.58726 -2.27425
lowerneck -5.09493 -10.4695 -20.7849
upperneck 7.51563 -12.5927 5.65527
head 4.76092 -6.52335 4.08588
rclavicle -4.77083e-015 1.43125e-014
rhumerus 39.2514 7.65821 -57.6556
rradius 134.673
rwrist -13.4582
rhand 20.3915 11.2045
rfingers 7.12502
rthumb 44.8996 -12.3345
lclavicle -4.77083e-015 1.43125e-014
lhumerus 21.1263 -19.2255 64.7022
lradius 114.215
lwrist 2.07058
lhand -11.5843 27.369
lfingers 7.12502
lthumb 14.4576 56.8453
rfemur -26.3828 8.59058 20.0513
rtibia 42.877
rfoot -11.9831 -10.2648
rtoes -11.7239
lfemur -26.6977 -7.81144 -9.85835
ltibia 42.0588
lfoot -11.166 4.47512
ltoes -17.5321
2086
root -0.0850121 15.3128 -2.78818 -0.5302 0.154548 -3.39989
lowerback 30.0241 0.997819 -6.39145
upperback 11.9041 -0.847998 -5.97944
thorax -3.00889 -0.441364 -2.69771
lowerneck -4.13681 -10.4077 -19.9357
upperneck 6.95302 -12.7918 5.62521
head 4.3977 -6.59576 4.00249
rclavicle 1.27222e-014 2.38542e-014
rhumerus 38.3608 7.68375 -57.3782
rradius 135.049
rwrist -14.102
rhand 21.4863 11.1163
rfingers 7.12502
rthumb 45.9171 -12.0127
lclavicle 1.27222e-014 2.38542e-014
lhumerus 21.111 -20.0326 64.4448
lradius 114.526
lwrist 2.30497
lhand -11.8264 27.5118
lfingers 7.12502
lthumb 14.2242 57.0048
rfemur -26.4623 8.58822 19.9975
rtibia 42.8947
rfoot -11.9986 -10.2282
rtoes -11.6908
lfemur -26.7389 -7.78125 -9.89643
ltibia 42.0233
lfoot -11.1659 4.48182
ltoes -17.6951
2087
root -0.083805 15.3158 -2.78869 -0.478267 0.14451 -3.29964
lowerback 29.8714 1.08238 -6.32501
upperback 11.9298 -0.713965 -6.11096
thorax -2.91178 -0.371499 -2.92311
lowerneck -3.90623 -10.347 -19.7082
upperneck 6.7841 -12.8025 5.86696
head 4.31009 -6.58609 4.06168
rclavicle 4.77083e-015 -9.54166e-015
rhumerus 37.6499 7.72491 -57.2261
rradius 135.396
rwrist -14.1992
rhand 22.2728 10.9159
rfingers 7.12502
rthumb 46.6462 -11.9046
lclavicle 4.77083e-015 -9.54166e-015
lhumerus 21.2637 -20.3352 64.3614
lradius 114.601
lwrist 2.26394
lhand -11.5371 27.6532
lfingers 7.12502
lthumb 14.503 57.1263
rfemur -26.5315 8.59348 19.8742
rtibia 42.9134
rfoot -12.024 -10.1982
rtoes -11.6768
lfemur -26.7607 -7.75847 -10.0039
ltibia 41.9692
lfoot -11.1658 4.45427
ltoes -17.5076
2088
root -0.0834655 15.317 -2.79025 -0.433308 0.140616 -3.20024
lowerback 29.8579 1.11174 -6.37443
upperback 11.9202 -0.693477 -6.17442
thorax -2.91527 -0.360654 -2.97247
lowerneck -3.94843 -10.2935 -19.9593
upperneck 6.70169 -12.7361 6.21194
head 4.32166 -6.54474 4.20969
rclavicle -1.43125e-014 -1.59028e-015
rhumerus 36.8736 7.79632 -57.3179
rradius 135.765
rwrist -14.1045
rhand 22.9497 10.9454
rfingers 7.12502
rthumb 47.2724 -11.5999
lclavicle -1.43125e-014 -1.59028e-015
lhumerus 21.4531 -20.4018 64.4882
lradius 114.423
lwrist 2.1061
lhand -11.2407 27.6966
lfingers 7.12502
lthumb 14.7886 57.1489
rfemur -26.6036 8.57479 19.765
rtibia 42.9421
rfoot -12.01 -10.2076
rtoes -11.8187
lfemur -26.7821 -7.75173 -10.1089
ltibia 41.9072
lfoot -11.1655 4.48632
ltoes -17.4935
2089
root -0.0829693 15.3177 -2.79049 -0.404951 0.14712 -3.16744
lowerback 29.8556 1.12845 -6.35712
upperback 11.9426 -0.668274 -6.22058
thorax -2.889 -0.346743 -3.04205
lowerneck -4.03522 -10.2759 -20.1096
upperneck 6.4998 -12.7072 6.46897
head 4.29526 -6.51741 4.31329
rclavicle 0 -1.11319e-014
rhumerus 36.0832 7.54081 -57.6158
rradius 136.031
rwrist -14.2435
rhand 23.5665 11.1006
rfingers 7.12502
rthumb 47.8418 -11.1857
lclavicle 0 -1.11319e-014
lhumerus 21.6424 -20.5458 64.5008
lradius 114.336
lwrist 2.23601
lhand -11.3881 27.7449
lfingers 7.12502
lthumb 14.6466 57.2076
rfemur -26.63 8.56059 19.7278
rtibia 42.9524
rfoot -11.9866 -10.2244
rtoes -12.0353
lfemur -26.7836 -7.74628 -10.1421
ltibia 41.8563
lfoot -11.1261 4.46758
ltoes -17.2583
